<svg width="538" height="484" viewBox="0 0 538 484" fill="none" xmlns="http://www.w3.org/2000/svg">
<path fill-rule="evenodd" clip-rule="evenodd" d="M495.858 318.118C516.139 294.894 537.059 270.938 537.059 241.524C537.059 211.599 515.876 187.323 495.281 163.72C484.703 151.597 474.28 139.652 466.961 127.21C459.474 114.109 454.067 98.4095 448.619 82.5918C438.37 52.8375 427.977 22.665 403.333 8.58267C379.728 -4.60857 349.418 0.972643 318.734 6.62273C301.756 9.74902 284.664 12.8964 268.529 12.8964C252.439 12.8964 235.396 9.63018 218.464 6.38523C187.733 0.495623 157.367 -5.32394 133.725 8.58267C109.091 23.3632 98.697 53.3026 88.4524 82.8112C83 98.5162 77.59 114.099 70.098 127.21C62.914 140.066 52.1507 152.391 41.2011 164.93C20.9202 188.154 0 212.11 0 241.524C0 271.448 21.1825 295.724 41.778 319.328C52.3561 331.45 62.7792 343.396 70.098 355.838C77.5844 368.939 82.9919 384.638 88.4402 400.456C98.6888 430.21 109.081 460.383 133.725 474.465C157.331 487.656 187.641 482.075 218.325 476.425C235.302 473.299 252.395 470.151 268.529 470.151C284.62 470.151 301.663 473.417 318.594 476.662C349.326 482.552 379.692 488.372 403.333 474.465C427.977 460.383 438.37 430.21 448.619 400.456C454.067 384.638 459.474 368.939 466.961 355.838C474.145 342.982 484.908 330.657 495.858 318.118ZM480.642 313.615C499.523 291.961 519 269.624 519 242.198C519 214.297 499.279 191.661 480.105 169.654C470.257 158.35 460.553 147.213 453.739 135.612C446.769 123.396 441.735 108.758 436.662 94.0091C427.121 66.266 417.446 38.133 394.502 25.0025C372.525 12.7029 344.307 17.9069 315.741 23.1751C299.934 26.09 284.021 29.0247 269 29.0247C254.02 29.0247 238.153 25.9792 222.39 22.9536C193.779 17.4621 165.508 12.0359 143.498 25.0025C120.564 38.784 110.887 66.6997 101.349 94.2137C96.2727 108.857 91.236 123.387 84.261 135.612C77.5728 147.598 67.5522 159.09 57.3581 170.782C38.4766 192.436 19 214.773 19 242.198C19 270.1 38.7209 292.735 57.8952 314.743C67.7433 326.046 77.4473 337.184 84.261 348.785C91.2308 361.001 96.2652 375.639 101.338 390.388C110.879 418.131 120.554 446.264 143.498 459.394C165.475 471.694 193.693 466.49 222.259 461.222C238.066 458.307 253.979 455.372 269 455.372C283.98 455.372 299.847 458.418 315.61 461.443C344.221 466.935 372.492 472.361 394.502 459.394C417.446 446.264 427.121 418.131 436.662 390.388C441.735 375.639 446.769 361.001 453.739 348.785C460.427 336.799 470.448 325.306 480.642 313.615Z" fill="black"/>
</svg>
