<svg width="538" height="484" viewBox="0 0 538 484" fill="none" xmlns="http://www.w3.org/2000/svg">
<path d="M537.059 241.524C537.059 286.818 487.451 319.171 466.961 355.838C445.392 393.583 441.078 452.896 403.333 474.465C366.667 496.034 313.824 470.151 268.529 470.151C223.235 470.151 170.392 494.955 133.725 474.465C95.9804 452.896 91.6667 393.583 70.098 355.838C48.5294 319.171 0 286.818 0 241.524C0 196.23 49.6078 163.877 70.098 127.21C91.6667 89.465 95.9804 31.2297 133.725 8.58267C170.392 -12.986 223.235 12.8964 268.529 12.8964C313.824 12.8964 366.667 -11.9075 403.333 8.58267C441.078 30.1513 445.392 89.465 466.961 127.21C488.529 163.877 537.059 196.23 537.059 241.524Z" fill="black"/>
</svg>
